# xmcd
#
# Track frame offsets: 
#        150
#        20997
#        37250
#        56487
#        75297
#        92677
#        107552
#        124947
#        140330
#        161045
#        179447
#        197522
#
# Disc length: 2912 seconds
#
# Revision: 5
# Processed by: cddbd v1.5.2PL0 Copyright (c) Steve Scherf et al.
# Submitted via: ExactAudioCopy v0.95b4
#
DISCID=a00b5e0c
DTITLE=Pink Cream 69 - Change
DYEAR=1995
DGENRE=Melodic Power Metal, 
TTITLE0=Funny Words
TTITLE1=Light Of Day
TTITLE2=Change
TTITLE3=Yesterdays
TTITLE4=Two Hours
TTITLE5=Something I Said
TTITLE6=Only The Good
TTITLE7=20th Century Boy
TTITLE8=Queen Bee
TTITLE9=Stretch The Truth
TTITLE10=New Control
TTITLE11=Freakshow
EXTD=9362-45440-2\nPaisley Park Records\n\n(C) 1993  (P) 1978 - 1993\n
EXTD=Warner Bros. Records Inc. - Wea International Inc.\n YEAR: 1995
EXTT0=
EXTT1=
EXTT2=
EXTT3=
EXTT4=
EXTT5=
EXTT6=
EXTT7=
EXTT8=
EXTT9=
EXTT10=
EXTT11=
PLAYORDER=
